<svg width="16" height="16" viewBox="0 0 16 16" fill="none" xmlns="http://www.w3.org/2000/svg">
<path fill-rule="evenodd" clip-rule="evenodd" d="M4.10226 0.799805C2.92253 0.799805 2.47528 0.886173 2.01437 1.13267C1.63231 1.337 1.33724 1.63206 1.13291 2.01413C0.886417 2.47504 0.800049 2.92229 0.800049 4.10202L0.800049 11.8976C0.800049 13.0773 0.886417 13.5246 1.13291 13.9855C1.33724 14.3675 1.63231 14.6626 2.01437 14.8669C2.47528 15.1134 2.92253 15.1998 4.10226 15.1998H11.8978C13.0776 15.1998 13.5248 15.1134 13.9857 14.8669C14.3678 14.6626 14.6629 14.3675 14.8672 13.9855C15.1137 13.5246 15.2 13.0773 15.2 11.8976V4.10202C15.2 2.92229 15.1137 2.47504 14.8672 2.01413C14.6629 1.63206 14.3678 1.337 13.9857 1.13267C13.5248 0.886173 13.0776 0.799805 11.8978 0.799805L4.10226 0.799805Z" fill="#DDE4EA"/>
<path fill-rule="evenodd" clip-rule="evenodd" d="M11.8978 0H4.10222C2.67579 0 2.15853 0.148521 1.63705 0.427412C1.11557 0.706304 0.706304 1.11557 0.427412 1.63705C0.148521 2.15853 0 2.67579 0 4.10222V11.8978C0 13.3242 0.148521 13.8415 0.427412 14.363C0.706304 14.8844 1.11557 15.2937 1.63705 15.5726C2.15853 15.8515 2.67579 16 4.10222 16H11.8978C13.3242 16 13.8415 15.8515 14.363 15.5726C14.8844 15.2937 15.2937 14.8844 15.5726 14.363C15.8515 13.8415 16 13.3242 16 11.8978V4.10222C16 2.67579 15.8515 2.15853 15.5726 1.63705C15.2937 1.11557 14.8844 0.706304 14.363 0.427412C13.8415 0.148521 13.3242 0 11.8978 0ZM2.01433 1.13286C2.47523 0.886368 2.92248 0.8 4.10222 0.8H11.8978C13.0775 0.8 13.5248 0.886368 13.9857 1.13286C14.3677 1.33719 14.6628 1.63226 14.8671 2.01433C15.1136 2.47523 15.2 2.92248 15.2 4.10222V11.8978C15.2 13.0775 15.1136 13.5248 14.8671 13.9857C14.6628 14.3677 14.3677 14.6628 13.9857 14.8671C13.5248 15.1136 13.0775 15.2 11.8978 15.2H4.10222C2.92248 15.2 2.47523 15.1136 2.01433 14.8671C1.63226 14.6628 1.33719 14.3677 1.13286 13.9857C0.886368 13.5248 0.8 13.0775 0.8 11.8978V4.10222C0.8 2.92248 0.886368 2.47523 1.13286 2.01433C1.33719 1.63226 1.63226 1.33719 2.01433 1.13286Z" fill="#283946"/>
<path fill-rule="evenodd" clip-rule="evenodd" d="M12.3387 3H3.66129C3.5721 3 3.5 3.07226 3.5 3.16129V4.77419C3.5 4.86323 3.5721 4.93548 3.66129 4.93548H3.82258V12.8387C3.82258 12.9278 3.89479 13 3.98387 13C4.07295 13 4.14516 12.9278 4.14516 12.8387V4.93548H11.8871V8.16129H9.46774C9.37855 8.16129 9.30645 8.23355 9.30645 8.32258V10.4194H8.33871V8.48387H8.5C8.58919 8.48387 8.66129 8.41161 8.66129 8.32258V6.06452C8.66129 5.97548 8.58919 5.90323 8.5 5.90323H5.91935C5.83016 5.90323 5.75806 5.97548 5.75806 6.06452V8.16129H5.59677C5.50758 8.16129 5.43548 8.23355 5.43548 8.32258V10.5806V12.8387C5.43548 12.9277 5.50758 13 5.59677 13H8.17742H10.7581C10.8473 13 10.9194 12.9277 10.9194 12.8387V10.7419H11.8871V12.8319C11.8871 12.921 11.9593 12.9932 12.0484 12.9932C12.1375 12.9932 12.2097 12.921 12.2097 12.8319V12.7617V10.5806V8.32258V4.93548H12.3387C12.4279 4.93548 12.5 4.86323 12.5 4.77419V3.16129C12.5 3.07226 12.4279 3 12.3387 3ZM6.72581 6.22581H6.08065V8.16129H8.17742H8.33871V6.22581H7.69355H6.72581ZM5.91935 8.48387H5.75806V10.4194H8.01613V8.48387H7.37097H6.40323H5.91935ZM6.40323 10.7419H5.75806V12.6774H8.01613V10.7419H7.37097H6.40323ZM8.33871 12.6774H10.5968V10.7419H9.95161H8.98387H8.33871V12.6774ZM9.62903 10.4194H10.7581H11.8871V8.48387H11.2419H10.2742H9.62903V10.4194ZM12.0161 4.6129H12.1774V3.32258H3.82258V4.6129H3.98387H4.95161H12.0484H12.0161Z" fill="#283946"/>
<path d="M12.2097 12.7617V10.5806V8.32258V4.93548M12.2097 12.7617V4.93548M12.2097 12.7617V12.8319C12.2097 12.921 12.1375 12.9932 12.0484 12.9932V12.9932C11.9593 12.9932 11.8871 12.921 11.8871 12.8319V10.7419H10.9194V12.8387C10.9194 12.9277 10.8473 13 10.7581 13H8.17742H5.59677C5.50758 13 5.43548 12.9277 5.43548 12.8387V10.5806V8.32258C5.43548 8.23355 5.50758 8.16129 5.59677 8.16129H5.75806V6.06452C5.75806 5.97548 5.83016 5.90323 5.91935 5.90323H8.5C8.58919 5.90323 8.66129 5.97548 8.66129 6.06452V8.32258C8.66129 8.41161 8.58919 8.48387 8.5 8.48387H8.33871V10.4194H9.30645V8.32258C9.30645 8.23355 9.37855 8.16129 9.46774 8.16129H11.8871V4.93548H4.14516V12.8387C4.14516 12.9278 4.07295 13 3.98387 13V13C3.89479 13 3.82258 12.9278 3.82258 12.8387V4.93548H3.66129C3.5721 4.93548 3.5 4.86323 3.5 4.77419V3.16129C3.5 3.07226 3.5721 3 3.66129 3H12.3387C12.4279 3 12.5 3.07226 12.5 3.16129V4.77419C12.5 4.86323 12.4279 4.93548 12.3387 4.93548H12.2097M6.08065 6.22581H6.72581H7.69355H8.33871V8.16129H8.17742H6.08065V6.22581ZM5.75806 8.48387H5.91935H6.40323H7.37097H8.01613V10.4194H5.75806V8.48387ZM5.75806 10.7419H6.40323H7.37097H8.01613V12.6774H5.75806V10.7419ZM10.5968 12.6774H8.33871V10.7419H8.98387H9.95161H10.5968V12.6774ZM10.7581 10.4194H9.62903V8.48387H10.2742H11.2419H11.8871V10.4194H10.7581ZM12.1774 4.6129H12.0161H12.0484H4.95161H3.98387H3.82258V3.32258H12.1774V4.6129Z" stroke="#283946" stroke-width="0.25"/>
</svg>
