<svg width="16" height="16" viewBox="0 0 16 16" fill="none" xmlns="http://www.w3.org/2000/svg">
<path fill-rule="evenodd" clip-rule="evenodd" d="M4.16872 11.4406C4.05863 11.2345 4 11.03 4 10.4661V6.56195C4 5.99809 4.05863 5.79363 4.16872 5.58749C4.2788 5.38135 4.44035 5.21958 4.6462 5.10933C4.85205 4.99909 5.05623 4.94038 5.6193 4.94038H8.36373C8.49961 4.94038 8.54833 4.93235 8.601 4.91488C8.65367 4.89742 8.6992 4.87053 8.73994 4.83282C8.78068 4.7951 8.81127 4.75628 8.877 4.63719L8.96918 4.47019C9.02693 4.36556 9.09482 4.27844 9.17295 4.20878C9.25108 4.13912 9.33945 4.08693 9.43812 4.05215C9.5368 4.01737 9.64579 4 9.76517 4H10.6143C11.3796 4 12 4.62125 12 5.3876V10.4661C12 11.03 11.9414 11.2345 11.8313 11.4406C11.6474 11.785 11.289 12 10.899 12H5.10094C4.71095 12 4.35263 11.785 4.16872 11.4406Z" stroke="white" stroke-linecap="round"/>
</svg>
