<svg width="16" height="16" viewBox="0 0 16 16" fill="none" xmlns="http://www.w3.org/2000/svg">
<path fill-rule="evenodd" clip-rule="evenodd" d="M4.10226 0.799805C2.92253 0.799805 2.47528 0.886173 2.01437 1.13267C1.63231 1.337 1.33724 1.63206 1.13291 2.01413C0.886417 2.47504 0.800049 2.92229 0.800049 4.10202L0.800049 11.8976C0.800049 13.0773 0.886417 13.5246 1.13291 13.9855C1.33724 14.3675 1.63231 14.6626 2.01437 14.8669C2.47528 15.1134 2.92253 15.1998 4.10226 15.1998H11.8978C13.0776 15.1998 13.5248 15.1134 13.9857 14.8669C14.3678 14.6626 14.6629 14.3675 14.8672 13.9855C15.1137 13.5246 15.2 13.0773 15.2 11.8976V4.10202C15.2 2.92229 15.1137 2.47504 14.8672 2.01413C14.6629 1.63206 14.3678 1.337 13.9857 1.13267C13.5248 0.886173 13.0776 0.799805 11.8978 0.799805L4.10226 0.799805Z" fill="#DDE4EA"/>
<path fill-rule="evenodd" clip-rule="evenodd" d="M11.8978 0H4.10222C2.67579 0 2.15853 0.148521 1.63705 0.427412C1.11557 0.706304 0.706304 1.11557 0.427412 1.63705C0.148521 2.15853 0 2.67579 0 4.10222V11.8978C0 13.3242 0.148521 13.8415 0.427412 14.363C0.706304 14.8844 1.11557 15.2937 1.63705 15.5726C2.15853 15.8515 2.67579 16 4.10222 16H11.8978C13.3242 16 13.8415 15.8515 14.363 15.5726C14.8844 15.2937 15.2937 14.8844 15.5726 14.363C15.8515 13.8415 16 13.3242 16 11.8978V4.10222C16 2.67579 15.8515 2.15853 15.5726 1.63705C15.2937 1.11557 14.8844 0.706304 14.363 0.427412C13.8415 0.148521 13.3242 0 11.8978 0ZM2.01433 1.13286C2.47523 0.886368 2.92248 0.8 4.10222 0.8H11.8978C13.0775 0.8 13.5248 0.886368 13.9857 1.13286C14.3677 1.33719 14.6628 1.63226 14.8671 2.01433C15.1136 2.47523 15.2 2.92248 15.2 4.10222V11.8978C15.2 13.0775 15.1136 13.5248 14.8671 13.9857C14.6628 14.3677 14.3677 14.6628 13.9857 14.8671C13.5248 15.1136 13.0775 15.2 11.8978 15.2H4.10222C2.92248 15.2 2.47523 15.1136 2.01433 14.8671C1.63226 14.6628 1.33719 14.3677 1.13286 13.9857C0.886368 13.5248 0.8 13.0775 0.8 11.8978V4.10222C0.8 2.92248 0.886368 2.47523 1.13286 2.01433C1.33719 1.63226 1.63226 1.33719 2.01433 1.13286Z" fill="#283946"/>
<path d="M6.04545 13C6.19012 13 6.32886 12.9473 6.43115 12.8536C6.53344 12.7598 6.59091 12.6326 6.59091 12.5V8.5H8.77273C9.49605 8.5 10.1897 8.23661 10.7012 7.76777C11.2127 7.29893 11.5 6.66304 11.5 6V5.5C11.5 4.83696 11.2127 4.20107 10.7012 3.73223C10.1897 3.26339 9.49605 3 8.77273 3H6.04545C5.90079 3 5.76205 3.05268 5.65976 3.14645C5.55747 3.24021 5.5 3.36739 5.5 3.5V12.5C5.5 12.6326 5.55747 12.7598 5.65976 12.8536C5.76205 12.9473 5.90079 13 6.04545 13ZM6.59091 4H8.77273C9.20672 4 9.62293 4.15804 9.92981 4.43934C10.2367 4.72064 10.4091 5.10218 10.4091 5.5V6C10.4091 6.39783 10.2367 6.77936 9.92981 7.06066C9.62293 7.34197 9.20672 7.5 8.77273 7.5H6.59091V4Z" fill="#283946"/>
</svg>
