<svg width="13" height="4" viewBox="0 0 13 4" fill="none" xmlns="http://www.w3.org/2000/svg">
<g id="Group-21">
<path id="Oval" d="M2 3.5C2.82843 3.5 3.5 2.82843 3.5 2C3.5 1.17157 2.82843 0.5 2 0.5C1.17157 0.5 0.5 1.17157 0.5 2C0.5 2.82843 1.17157 3.5 2 3.5Z" fill="#506474"/>
<path id="Oval-Copy" d="M6.5 3.5C7.32843 3.5 8 2.82843 8 2C8 1.17157 7.32843 0.5 6.5 0.5C5.67157 0.5 5 1.17157 5 2C5 2.82843 5.67157 3.5 6.5 3.5Z" fill="#506474"/>
<path id="Oval-Copy-2" d="M11 3.5C11.8284 3.5 12.5 2.82843 12.5 2C12.5 1.17157 11.8284 0.5 11 0.5C10.1716 0.5 9.5 1.17157 9.5 2C9.5 2.82843 10.1716 3.5 11 3.5Z" fill="#506474"/>
</g>
</svg>
