<svg width="13" height="13" viewBox="0 0 13 13" fill="none" xmlns="http://www.w3.org/2000/svg">
<g id="Group 275">
<g id="Group 274">
<path id="Vector" d="M8.89495 5.30418V4.01895M8.89495 5.30418H7.75366M8.89495 5.30418C8.89495 5.30418 8.49042 4.62874 7.68051 4.20654C7.31231 4.0146 6.86032 3.875 6.32448 3.875C5.86218 3.875 5.43001 3.99549 5.05684 4.20654C4.86219 4.31664 4.68359 4.45137 4.52515 4.6065" stroke="#506474" stroke-linecap="round" stroke-linejoin="round"/>
<path id="Vector_2" d="M6.32443 9.59729L7.40256 10.2969M6.32443 9.59729L6.94569 8.63991M6.32443 9.59729C6.32443 9.59729 7.11124 9.62562 7.90627 9.17605C8.26771 8.97166 8.63086 8.6685 8.92255 8.219C9.1742 7.8312 9.30837 7.40308 9.33446 6.97516C9.34807 6.75194 9.33227 6.52878 9.28838 6.31142" stroke="#506474" stroke-linecap="round" stroke-linejoin="round"/>
<path id="Vector_3" d="M3.70128 5.41685L2.59284 6.06738M3.70128 5.41685L4.27895 6.40114M3.70128 5.41685C3.70128 5.41685 3.32351 6.10761 3.36933 7.01981C3.39016 7.43451 3.49853 7.89498 3.76976 8.35712C4.00375 8.75582 4.32641 9.06756 4.69732 9.28257C4.89079 9.39472 5.09739 9.48055 5.31138 9.53868" stroke="#506474" stroke-linecap="round" stroke-linejoin="round"/>
</g>
<path id="Path-Copy-4" fill-rule="evenodd" clip-rule="evenodd" d="M0.737256 11.2133C0.582444 10.9235 0.5 10.6359 0.5 9.84302V4.35274C0.5 3.55982 0.582444 3.27229 0.737256 2.98241C0.892068 2.69253 1.11925 2.46503 1.40872 2.31C1.6982 2.15497 1.98533 2.07241 2.77713 2.07241H6.6365C6.82757 2.07241 6.89609 2.06111 6.97016 2.03656C7.04423 2.012 7.10825 1.97418 7.16554 1.92115C7.22283 1.86811 7.26585 1.81352 7.35829 1.64605L7.4879 1.41121C7.56912 1.26407 7.6646 1.14155 7.77447 1.0436C7.88434 0.94564 8.0086 0.872241 8.14736 0.823331C8.28612 0.774421 8.43939 0.75 8.60727 0.75H9.80142C10.8776 0.75 11.75 1.62363 11.75 2.70131V9.84302C11.75 10.6359 11.6676 10.9235 11.5127 11.2133C11.2541 11.6976 10.7502 12 10.2018 12H2.04821C1.49978 12 0.995895 11.6976 0.737256 11.2133Z" stroke="#506474" stroke-linecap="round"/>
</g>
</svg>
