<svg width="18" height="18" viewBox="0 0 18 18" fill="none" xmlns="http://www.w3.org/2000/svg">
<g id="Parking">
<path id="Path" fill-rule="evenodd" clip-rule="evenodd" d="M4.61502 0.900391C3.28782 0.900391 2.78466 0.997555 2.26614 1.27486C1.83632 1.50473 1.50437 1.83668 1.2745 2.26651C0.997188 2.78503 0.900024 3.28818 0.900024 4.61538L0.900024 13.3854C0.900024 14.7126 0.997188 15.2158 1.2745 15.7343C1.50437 16.1641 1.83632 16.496 2.26614 16.7259C2.78466 17.0032 3.28782 17.1004 4.61502 17.1004H13.385C14.7122 17.1004 15.2154 17.0032 15.7339 16.7259C16.1637 16.496 16.4957 16.1641 16.7256 15.7343C17.0029 15.2158 17.1 14.7126 17.1 13.3854V4.61538C17.1 3.28818 17.0029 2.78503 16.7256 2.26651C16.4957 1.83668 16.1637 1.50473 15.7339 1.27486C15.2154 0.997555 14.7122 0.900391 13.385 0.900391L4.61502 0.900391Z" fill="white"/>
<path id="Rectangle 8" fill-rule="evenodd" clip-rule="evenodd" d="M13.385 0H4.61499C3.01026 0 2.42834 0.167086 1.84168 0.480839C1.25501 0.794592 0.794592 1.25501 0.480839 1.84168C0.167086 2.42834 0 3.01026 0 4.61499V13.385C0 14.9897 0.167086 15.5717 0.480839 16.1583C0.794592 16.745 1.25501 17.2054 1.84168 17.5192C2.42834 17.8329 3.01026 18 4.61499 18H13.385C14.9897 18 15.5717 17.8329 16.1583 17.5192C16.745 17.2054 17.2054 16.745 17.5192 16.1583C17.8329 15.5717 18 14.9897 18 13.385V4.61499C18 3.01026 17.8329 2.42834 17.5192 1.84168C17.2054 1.25501 16.745 0.794592 16.1583 0.480839C15.5717 0.167086 14.9897 0 13.385 0ZM2.26612 1.27447C2.78464 0.997164 3.28779 0.9 4.61499 0.9H13.385C14.7122 0.9 15.2154 0.997164 15.7339 1.27447C16.1637 1.50434 16.4957 1.83629 16.7255 2.26612C17.0028 2.78464 17.1 3.28779 17.1 4.61499V13.385C17.1 14.7122 17.0028 15.2154 16.7255 15.7339C16.4957 16.1637 16.1637 16.4957 15.7339 16.7255C15.2154 17.0028 14.7122 17.1 13.385 17.1H4.61499C3.28779 17.1 2.78464 17.0028 2.26612 16.7255C1.83629 16.4957 1.50434 16.1637 1.27447 15.7339C0.997164 15.2154 0.9 14.7122 0.9 13.385V4.61499C0.9 3.28779 0.997164 2.78464 1.27447 2.26612C1.50434 1.83629 1.83629 1.50434 2.26612 1.27447Z" fill="#A4B1BB"/>
<path id="Subtract" fill-rule="evenodd" clip-rule="evenodd" d="M3.27777 14.413V10.4846C2.65031 10.4846 2.83917 9.7101 2.83917 9.7101H4.94898V3.19977C4.94898 2.97733 5.12795 2.8125 5.34599 2.8125H12.654C12.872 2.8125 13.051 2.97734 13.051 3.19977V9.7101H15.1608C15.1608 9.7101 15.3497 10.4846 14.7222 10.4846V14.413C15.1608 14.413 15.1608 15.1875 15.1608 15.1875H2.83917C2.83917 15.1875 2.83917 14.413 3.27777 14.413ZM12.2287 9.7101H8.58883H5.74299V3.60067H8.58883H12.2287V9.7101ZM13.9282 14.413H13.2068V10.4846H13.9282V14.413ZM7.11679 10.4846H7.83821V14.413H7.11679V10.4846ZM6.32278 14.413H5.60136V10.4846H6.32278V14.413ZM8.64637 10.4846H9.36779V14.413H8.64637V10.4846ZM10.1618 10.4846H10.8832V14.413H10.1618V10.4846ZM11.6772 10.4846H12.3986V14.413H11.6772V10.4846ZM4.07178 10.4846H4.7932V14.413H4.07178V10.4846Z" fill="#A4B1BB"/>
</g>
</svg>
