<svg width="16" height="16" viewBox="0 0 16 16" fill="none" xmlns="http://www.w3.org/2000/svg">
<path fill-rule="evenodd" clip-rule="evenodd" d="M4.10226 0.799805C2.92253 0.799805 2.47528 0.886173 2.01437 1.13267C1.63231 1.337 1.33724 1.63206 1.13291 2.01413C0.886417 2.47504 0.800049 2.92229 0.800049 4.10202L0.800049 11.8976C0.800049 13.0773 0.886417 13.5246 1.13291 13.9855C1.33724 14.3675 1.63231 14.6626 2.01437 14.8669C2.47528 15.1134 2.92253 15.1998 4.10226 15.1998H11.8978C13.0776 15.1998 13.5248 15.1134 13.9857 14.8669C14.3678 14.6626 14.6629 14.3675 14.8672 13.9855C15.1137 13.5246 15.2 13.0773 15.2 11.8976V4.10202C15.2 2.92229 15.1137 2.47504 14.8672 2.01413C14.6629 1.63206 14.3678 1.337 13.9857 1.13267C13.5248 0.886173 13.0776 0.799805 11.8978 0.799805L4.10226 0.799805Z" fill="#DDE4EA"/>
<path fill-rule="evenodd" clip-rule="evenodd" d="M11.8978 0H4.10222C2.67579 0 2.15853 0.148521 1.63705 0.427412C1.11557 0.706304 0.706304 1.11557 0.427412 1.63705C0.148521 2.15853 0 2.67579 0 4.10222V11.8978C0 13.3242 0.148521 13.8415 0.427412 14.363C0.706304 14.8844 1.11557 15.2937 1.63705 15.5726C2.15853 15.8515 2.67579 16 4.10222 16H11.8978C13.3242 16 13.8415 15.8515 14.363 15.5726C14.8844 15.2937 15.2937 14.8844 15.5726 14.363C15.8515 13.8415 16 13.3242 16 11.8978V4.10222C16 2.67579 15.8515 2.15853 15.5726 1.63705C15.2937 1.11557 14.8844 0.706304 14.363 0.427412C13.8415 0.148521 13.3242 0 11.8978 0ZM2.01433 1.13286C2.47523 0.886368 2.92248 0.8 4.10222 0.8H11.8978C13.0775 0.8 13.5248 0.886368 13.9857 1.13286C14.3677 1.33719 14.6628 1.63226 14.8671 2.01433C15.1136 2.47523 15.2 2.92248 15.2 4.10222V11.8978C15.2 13.0775 15.1136 13.5248 14.8671 13.9857C14.6628 14.3677 14.3677 14.6628 13.9857 14.8671C13.5248 15.1136 13.0775 15.2 11.8978 15.2H4.10222C2.92248 15.2 2.47523 15.1136 2.01433 14.8671C1.63226 14.6628 1.33719 14.3677 1.13286 13.9857C0.886368 13.5248 0.8 13.0775 0.8 11.8978V4.10222C0.8 2.92248 0.886368 2.47523 1.13286 2.01433C1.33719 1.63226 1.63226 1.33719 2.01433 1.13286Z" fill="#283946"/>
<path fill-rule="evenodd" clip-rule="evenodd" d="M2.91358 12.8115V9.31968C2.35583 9.31968 2.5237 8.6312 2.5237 8.6312H4.3991V2.84424C4.3991 2.64652 4.55818 2.5 4.75199 2.5H11.248C11.4418 2.5 11.6009 2.64652 11.6009 2.84424V8.6312H13.4763C13.4763 8.6312 13.6442 9.31968 13.0864 9.31968V12.8115C13.4763 12.8115 13.4763 13.5 13.4763 13.5H2.5237C2.5237 13.5 2.5237 12.8115 2.91358 12.8115ZM10.8699 8.6312H7.63452H5.10488V3.2006H7.63452H10.8699V8.6312ZM12.3806 12.8115H11.7394V9.31968H12.3806V12.8115ZM6.32603 9.31968H6.96729V12.8115H6.32603V9.31968ZM5.62025 12.8115H4.97899V9.31968H5.62025V12.8115ZM7.68566 9.31968H8.32693V12.8115H7.68566V9.31968ZM9.03271 9.31968H9.67397V12.8115H9.03271V9.31968ZM10.3797 9.31968H11.021V12.8115H10.3797V9.31968ZM3.61936 9.31968H4.26062V12.8115H3.61936V9.31968Z" fill="#283946"/>
</svg>
