<svg width="14" height="15" viewBox="0 0 14 15" fill="none" xmlns="http://www.w3.org/2000/svg">
<g id="indicators/call">
<path id="Oval" d="M6.54803 13.7792C6.35623 13.7642 6.21291 13.5957 6.22791 13.403C6.2429 13.2103 6.41053 13.0663 6.60233 13.0814C8.99891 13.2696 11.2157 11.7114 11.8453 9.35049C12.0154 8.71274 12.0592 8.05981 11.9796 7.41923C11.9558 7.22741 12.0913 7.05252 12.2822 7.0286C12.4731 7.00468 12.6471 7.14078 12.671 7.3326C12.7615 8.06243 12.7117 8.8063 12.5182 9.53167C11.8014 12.2198 9.27777 13.9937 6.54803 13.7792ZM8.47002 2.48632C8.65584 2.53635 8.76612 2.72827 8.71633 2.91498C8.66654 3.1017 8.47554 3.2125 8.28971 3.16247C5.60724 2.44026 2.84998 4.03979 2.13121 6.73513C2.01086 7.18645 1.95365 7.64568 1.95887 8.10355C1.96107 8.29684 1.80691 8.45532 1.61455 8.45753C1.42218 8.45975 1.26445 8.30485 1.26225 8.11156C1.25631 7.58999 1.32145 7.0671 1.45829 6.55395C2.27664 3.48519 5.4159 1.66405 8.47002 2.48632Z" fill="#A4B1BB"/>
<path id="Oval_2" d="M5.04263 11.386C4.87437 11.2923 4.81358 11.0793 4.90684 10.9102C5.00011 10.7412 5.21212 10.6801 5.38037 10.7738C6.89469 11.6172 8.80275 11.0675 9.64215 9.54591C10.0594 8.78953 10.145 7.91303 9.89946 7.10186C9.84349 6.91692 9.94731 6.72141 10.1314 6.66516C10.3154 6.60891 10.51 6.71324 10.566 6.89818C10.8658 7.88886 10.7611 8.9614 10.2515 9.88528C9.22553 11.745 6.89345 12.4169 5.04263 11.386ZM7.48654 4.21314C7.67666 4.24269 7.80693 4.42151 7.77752 4.61253C7.74811 4.80356 7.57015 4.93446 7.38003 4.90491C6.0923 4.70474 4.80059 5.32739 4.15833 6.49161C4.01772 6.7465 3.91418 7.01563 3.84861 7.29336C3.80421 7.48144 3.61648 7.59775 3.42929 7.55313C3.24211 7.50852 3.12636 7.31988 3.17076 7.1318C3.25096 6.79209 3.37752 6.46312 3.54902 6.15225C4.33395 4.72939 5.91253 3.96847 7.48654 4.21314Z" fill="#A4B1BB"/>
<path id="Rectangle-2" d="M2.81795 9.81553C2.06375 10.5734 1.97889 11.7731 2.61885 12.6305L3.13279 13.319C3.15256 13.3455 3.17419 13.3705 3.1975 13.394C3.46956 13.6673 3.91066 13.6673 4.18273 13.394L4.95906 12.6139C5.11001 12.4622 5.16272 12.2379 5.09521 12.0344L5.03077 11.8401C4.94672 11.5868 4.91431 11.4221 4.91657 11.2292C4.9189 11.0308 4.96358 10.8406 5.04979 10.6621C5.13363 10.4885 5.23593 10.3558 5.42386 10.167L5.50982 10.0806L7.97288 7.60574L8.4655 7.11076L8.55146 7.02439C8.73939 6.83556 8.87149 6.73278 9.04423 6.64853C9.22188 6.5619 9.41112 6.51702 9.60857 6.51467C9.80057 6.5124 9.96447 6.54497 10.2166 6.62942L10.4099 6.69417C10.6125 6.762 10.8358 6.70904 10.9867 6.55736L11.763 5.77731C11.7863 5.75389 11.808 5.72883 11.8278 5.70233C12.0586 5.39306 11.9962 4.95429 11.6884 4.72234L11.0032 4.20594C10.1499 3.56291 8.95589 3.64817 8.20169 4.40599L2.81795 9.81553ZM2.32534 9.32056L7.70907 3.91101C8.70842 2.90687 10.2905 2.7939 11.4212 3.64594L12.1064 4.16234C12.722 4.62625 12.8468 5.50378 12.3851 6.12234C12.3455 6.17533 12.3023 6.22544 12.2557 6.27228L11.4793 7.05234C11.1418 7.3915 10.6425 7.50993 10.1896 7.35825L9.9963 7.29349C9.79899 7.22741 9.71165 7.2135 9.61679 7.21462C9.52193 7.21575 9.43376 7.23666 9.34841 7.27828C9.26307 7.3199 9.19114 7.37159 9.04407 7.51936L5.91647 10.662C5.7694 10.8097 5.71796 10.882 5.67654 10.9678C5.63512 11.0535 5.6143 11.1421 5.61318 11.2374C5.61207 11.3327 5.62591 11.4205 5.69168 11.6188L5.75612 11.813C5.90708 12.2681 5.78921 12.7697 5.45167 13.1089L4.67534 13.8889C4.13121 14.4357 3.24901 14.4357 2.70489 13.8889C2.65827 13.8421 2.61502 13.792 2.57546 13.739L2.06152 13.0505C1.21355 11.9144 1.32598 10.3247 2.32534 9.32056Z" fill="#A4B1BB"/>
</g>
</svg>
