<svg width="19" height="19" viewBox="0 0 19 19" fill="none" xmlns="http://www.w3.org/2000/svg">
<g id="Indicators/CautionIndicator">
<path id="Combined Shape" fill-rule="evenodd" clip-rule="evenodd" d="M7.53423 4.42879L2.76957 11.8397C2.55612 12.1717 2.44263 12.5581 2.44263 12.9528C2.44263 14.0895 3.36413 15.011 4.50085 15.011H14.0302C14.4249 15.011 14.8112 14.8975 15.1433 14.6841C16.0994 14.0693 16.3762 12.7959 15.7615 11.8397L10.9968 4.42879C10.8374 4.18083 10.6266 3.97001 10.3786 3.81059C9.42243 3.19585 8.14897 3.47263 7.53423 4.42879ZM3.47174 12.9528C3.47174 12.7554 3.52849 12.5622 3.63521 12.3962L8.39987 4.98533C8.70724 4.50725 9.34397 4.36886 9.82205 4.67623C9.94603 4.75594 10.0514 4.86135 10.1312 4.98533L14.8958 12.3962C15.2032 12.8743 15.0648 13.5111 14.5867 13.8184C14.4207 13.9252 14.2275 13.9819 14.0302 13.9819H4.50085C3.93249 13.9819 3.47174 13.5212 3.47174 12.9528ZM8.85439 7.39609C8.85439 7.11191 9.08476 6.88154 9.36894 6.88154C9.65313 6.88154 9.8835 7.11191 9.8835 7.39609V10.4834C9.8835 10.7676 9.65313 10.998 9.36894 10.998C9.08476 10.998 8.85439 10.7676 8.85439 10.4834V7.39609ZM9.36894 11.5125C9.08476 11.5125 8.85439 11.7429 8.85439 12.0271C8.85439 12.3113 9.08476 12.5417 9.36894 12.5417C9.65313 12.5417 9.8835 12.3113 9.8835 12.0271C9.8835 11.7429 9.65313 11.5125 9.36894 11.5125Z" fill="#EF3E4A"/>
</g>
</svg>
