<svg width="16" height="16" viewBox="0 0 16 16" fill="none" xmlns="http://www.w3.org/2000/svg">
<path d="M4.56433 11.3974C4.86311 11.3244 5.18524 11.2901 5.54824 11.2901H9.70201C10.5938 11.2901 10.9436 11.2228 11.3045 11.0305C11.6082 10.8687 11.8436 10.6341 12.006 10.3316C12.1991 9.97205 12.2666 9.62359 12.2666 8.73518V6.28846C12.2666 5.40006 12.1991 5.05159 12.006 4.69203C11.8436 4.38951 11.6082 4.15491 11.3045 3.99312C10.9436 3.80082 10.5938 3.73353 9.70201 3.73353H6.29789C5.40612 3.73353 5.05634 3.80082 4.69541 3.99312C4.39174 4.15491 4.15626 4.38951 3.99386 4.69203C3.80083 5.05159 3.73328 5.40006 3.73328 6.28846V11.7335C3.99494 11.5803 4.26845 11.4697 4.56433 11.3974ZM6.27661 3.2002H9.72329C10.7931 3.2002 11.1811 3.31159 11.5722 3.52075C11.9633 3.72992 12.2702 4.03687 12.4794 4.42798C12.6886 4.81909 12.8 5.20704 12.8 6.27686V8.76353C12.8 9.83336 12.6886 10.2213 12.4794 10.6124C12.2702 11.0035 11.9633 11.3105 11.5722 11.5196C11.1811 11.7288 10.7931 11.8402 9.72329 11.8402H5.5176C5.19161 11.8402 4.90227 11.87 4.63575 11.9354C4.36923 12.0008 4.12553 12.1017 3.89084 12.244C3.65615 12.3862 3.43046 12.5697 3.19995 12.8002V6.27686C3.19995 5.20704 3.31134 4.81909 3.52051 4.42798C3.72968 4.03687 4.03663 3.72992 4.42774 3.52075C4.81885 3.31159 5.20679 3.2002 6.27661 3.2002Z" fill="#01C73A"/>
<path d="M11.1996 5.60059C11.3469 5.60059 11.4663 5.71998 11.4663 5.86725C11.4663 6.01453 11.3469 6.13392 11.1996 6.13392H4.79963C4.65235 6.13392 4.53296 6.01453 4.53296 5.86725C4.53296 5.71998 4.65235 5.60059 4.79963 5.60059H11.1996Z" fill="#01C73A"/>
<path d="M9.06629 7.2002C9.21357 7.2002 9.33296 7.31959 9.33296 7.46686C9.33296 7.61414 9.21357 7.73353 9.06629 7.73353H4.79963C4.65235 7.73353 4.53296 7.61414 4.53296 7.46686C4.53296 7.31959 4.65235 7.2002 4.79963 7.2002H9.06629Z" fill="#01C73A"/>
<path d="M10.133 8.7998C10.2802 8.7998 10.3996 8.9192 10.3996 9.06647C10.3996 9.21375 10.2802 9.33314 10.133 9.33314H4.79963C4.65235 9.33314 4.53296 9.21375 4.53296 9.06647C4.53296 8.9192 4.65235 8.7998 4.79963 8.7998H10.133Z" fill="#01C73A"/>
</svg>
