<svg width="16" height="16" viewBox="0 0 16 16" fill="none" xmlns="http://www.w3.org/2000/svg">
<path d="M7.77131 3.68164V9.20598M4.3999 12.6816C4.67966 11.9899 5.34109 11.5385 6.07501 11.5385H9.62173C10.3808 11.5385 11.0724 11.9834 11.3999 12.6816" stroke="white" stroke-linecap="round"/>
<path fill-rule="evenodd" clip-rule="evenodd" d="M6.18242 5.00031H9.5504C9.66086 5.00031 9.7504 4.91077 9.7504 4.80031C9.7504 4.75239 9.7332 4.70606 9.70192 4.66976L8.0488 2.7511C7.9767 2.66742 7.85041 2.65803 7.76673 2.73013C7.76015 2.7358 7.75395 2.74189 7.74816 2.74836L6.0333 4.66703C5.9597 4.74939 5.96679 4.87582 6.04914 4.94943C6.08581 4.9822 6.13325 5.00031 6.18242 5.00031Z" fill="white" stroke="white"/>
</svg>
