<svg width="16" height="16" viewBox="0 0 16 16" fill="none" xmlns="http://www.w3.org/2000/svg">
<path fill-rule="evenodd" clip-rule="evenodd" d="M4.10226 0.799805C2.92253 0.799805 2.47528 0.886173 2.01437 1.13267C1.63231 1.337 1.33724 1.63206 1.13291 2.01413C0.886417 2.47504 0.800049 2.92229 0.800049 4.10202L0.800049 11.8976C0.800049 13.0773 0.886417 13.5246 1.13291 13.9855C1.33724 14.3675 1.63231 14.6626 2.01437 14.8669C2.47528 15.1134 2.92253 15.1998 4.10226 15.1998H11.8978C13.0776 15.1998 13.5248 15.1134 13.9857 14.8669C14.3678 14.6626 14.6629 14.3675 14.8672 13.9855C15.1137 13.5246 15.2 13.0773 15.2 11.8976V4.10202C15.2 2.92229 15.1137 2.47504 14.8672 2.01413C14.6629 1.63206 14.3678 1.337 13.9857 1.13267C13.5248 0.886173 13.0776 0.799805 11.8978 0.799805L4.10226 0.799805Z" fill="#DDE4EA"/>
<path fill-rule="evenodd" clip-rule="evenodd" d="M11.8978 0H4.10222C2.67579 0 2.15853 0.148521 1.63705 0.427412C1.11557 0.706304 0.706304 1.11557 0.427412 1.63705C0.148521 2.15853 0 2.67579 0 4.10222V11.8978C0 13.3242 0.148521 13.8415 0.427412 14.363C0.706304 14.8844 1.11557 15.2937 1.63705 15.5726C2.15853 15.8515 2.67579 16 4.10222 16H11.8978C13.3242 16 13.8415 15.8515 14.363 15.5726C14.8844 15.2937 15.2937 14.8844 15.5726 14.363C15.8515 13.8415 16 13.3242 16 11.8978V4.10222C16 2.67579 15.8515 2.15853 15.5726 1.63705C15.2937 1.11557 14.8844 0.706304 14.363 0.427412C13.8415 0.148521 13.3242 0 11.8978 0ZM2.01433 1.13286C2.47523 0.886368 2.92248 0.8 4.10222 0.8H11.8978C13.0775 0.8 13.5248 0.886368 13.9857 1.13286C14.3677 1.33719 14.6628 1.63226 14.8671 2.01433C15.1136 2.47523 15.2 2.92248 15.2 4.10222V11.8978C15.2 13.0775 15.1136 13.5248 14.8671 13.9857C14.6628 14.3677 14.3677 14.6628 13.9857 14.8671C13.5248 15.1136 13.0775 15.2 11.8978 15.2H4.10222C2.92248 15.2 2.47523 15.1136 2.01433 14.8671C1.63226 14.6628 1.33719 14.3677 1.13286 13.9857C0.886368 13.5248 0.8 13.0775 0.8 11.8978V4.10222C0.8 2.92248 0.886368 2.47523 1.13286 2.01433C1.33719 1.63226 1.63226 1.33719 2.01433 1.13286Z" fill="#283946"/>
<path d="M10.7403 10.956C10.6275 11.064 10.4497 11.064 10.3369 10.9561L8.75566 9.44288C8.65755 9.349 8.65752 9.19227 8.75558 9.09834C8.84778 9.01004 8.99317 9.01 9.08542 9.09826L10.359 10.3169C10.4595 10.413 10.6178 10.4129 10.7182 10.3168L11.9902 9.09842C12.0825 9.01008 12.2279 9.01008 12.3201 9.09842C12.4182 9.19231 12.4182 9.34898 12.3201 9.44288L10.7403 10.956Z" fill="#283946" stroke="#283946" stroke-width="0.25"/>
<path d="M12.3202 6.89601C12.2279 6.98436 12.0824 6.98436 11.9902 6.89601L10.7182 5.6777C10.6178 5.58154 10.4595 5.5815 10.359 5.67761L9.08545 6.89616C8.99319 6.98444 8.84777 6.98441 8.75555 6.89608C8.65749 6.80217 8.65749 6.64546 8.75555 6.55154L10.3366 5.03721C10.4496 4.92906 10.6277 4.92909 10.7405 5.0373L12.3202 6.55154C12.4182 6.64547 12.4182 6.80212 12.3202 6.89601Z" fill="#283946" stroke="#283946" stroke-width="0.25"/>
<path d="M5.22879 5.57788C4.63031 5.57788 4.14404 5.11215 4.14404 4.53894C4.14404 3.96573 4.63031 3.5 5.22879 3.5C5.82727 3.5 6.31353 3.96573 6.31353 4.53894C6.31353 5.11215 5.82564 5.57788 5.22879 5.57788ZM5.22879 3.96729C4.90027 3.96729 4.63193 4.2243 4.63193 4.53894C4.63193 4.85358 4.90027 5.11059 5.22879 5.11059C5.5573 5.11059 5.82564 4.85358 5.82564 4.53894C5.82564 4.2243 5.5573 3.96729 5.22879 3.96729Z" fill="#283946" stroke="#283946" stroke-width="0.25"/>
<path d="M6.96403 10.0081H3.5V7.62959C3.5 7.25265 3.65125 6.89906 3.92447 6.63582C4.19931 6.37103 4.56686 6.22461 4.96042 6.22461H5.49873C5.50036 6.22461 5.50036 6.22461 5.50198 6.22461C5.89067 6.22461 6.25659 6.36947 6.53306 6.63271C6.80953 6.89751 6.9624 7.24797 6.96403 7.62336V10.0081ZM3.98789 9.54081H6.47614V7.62181C6.47614 7.37258 6.37368 7.13738 6.18828 6.96137C6.00451 6.78691 5.76056 6.69034 5.50036 6.69034H5.49873H4.96042C4.41561 6.69034 3.98789 7.10311 3.98789 7.62959V9.54081Z" fill="#283946" stroke="#283946" stroke-width="0.25"/>
<path d="M5.87768 12.5005H4.59127C4.33919 12.5005 4.13428 12.3089 4.13428 12.0737V9.54102H6.31353V12.0737C6.31353 12.3136 6.12162 12.5005 5.87768 12.5005ZM4.62217 12.0332H5.82563V10.0083H4.62217V12.0332Z" fill="#283946" stroke="#283946" stroke-width="0.25"/>
</svg>
