<svg width="18" height="18" viewBox="0 0 18 18" fill="none" xmlns="http://www.w3.org/2000/svg">
<g id="Parking">
<path id="Path" fill-rule="evenodd" clip-rule="evenodd" d="M4.61502 0.900391C3.28782 0.900391 2.78466 0.997555 2.26614 1.27486C1.83632 1.50473 1.50437 1.83668 1.2745 2.26651C0.997188 2.78503 0.900024 3.28818 0.900024 4.61538L0.900024 13.3854C0.900024 14.7126 0.997188 15.2158 1.2745 15.7343C1.50437 16.1641 1.83632 16.496 2.26614 16.7259C2.78466 17.0032 3.28782 17.1004 4.61502 17.1004H13.385C14.7122 17.1004 15.2154 17.0032 15.7339 16.7259C16.1637 16.496 16.4957 16.1641 16.7256 15.7343C17.0029 15.2158 17.1 14.7126 17.1 13.3854V4.61538C17.1 3.28818 17.0029 2.78503 16.7256 2.26651C16.4957 1.83668 16.1637 1.50473 15.7339 1.27486C15.2154 0.997555 14.7122 0.900391 13.385 0.900391L4.61502 0.900391Z" fill="#DDE4EA"/>
<path id="Rectangle 8" fill-rule="evenodd" clip-rule="evenodd" d="M13.385 0H4.61499C3.01026 0 2.42834 0.167086 1.84168 0.480839C1.25501 0.794592 0.794592 1.25501 0.480839 1.84168C0.167086 2.42834 0 3.01026 0 4.61499V13.385C0 14.9897 0.167086 15.5717 0.480839 16.1583C0.794592 16.745 1.25501 17.2054 1.84168 17.5192C2.42834 17.8329 3.01026 18 4.61499 18H13.385C14.9897 18 15.5717 17.8329 16.1583 17.5192C16.745 17.2054 17.2054 16.745 17.5192 16.1583C17.8329 15.5717 18 14.9897 18 13.385V4.61499C18 3.01026 17.8329 2.42834 17.5192 1.84168C17.2054 1.25501 16.745 0.794592 16.1583 0.480839C15.5717 0.167086 14.9897 0 13.385 0ZM2.26612 1.27447C2.78464 0.997164 3.28779 0.9 4.61499 0.9H13.385C14.7122 0.9 15.2154 0.997164 15.7339 1.27447C16.1637 1.50434 16.4957 1.83629 16.7255 2.26612C17.0028 2.78464 17.1 3.28779 17.1 4.61499V13.385C17.1 14.7122 17.0028 15.2154 16.7255 15.7339C16.4957 16.1637 16.1637 16.4957 15.7339 16.7255C15.2154 17.0028 14.7122 17.1 13.385 17.1H4.61499C3.28779 17.1 2.78464 17.0028 2.26612 16.7255C1.83629 16.4957 1.50434 16.1637 1.27447 15.7339C0.997164 15.2154 0.9 14.7122 0.9 13.385V4.61499C0.9 3.28779 0.997164 2.78464 1.27447 2.26612C1.50434 1.83629 1.83629 1.50434 2.26612 1.27447Z" fill="#283946"/>
<path id="Vector" d="M6.80114 14.625C6.96388 14.625 7.11996 14.5657 7.23504 14.4602C7.35012 14.3548 7.41477 14.2117 7.41477 14.0625V9.5625H9.86932C10.6831 9.5625 11.4635 9.26618 12.0389 8.73874C12.6142 8.21129 12.9375 7.49592 12.9375 6.75V6.1875C12.9375 5.44158 12.6142 4.72621 12.0389 4.19876C11.4635 3.67132 10.6831 3.375 9.86932 3.375H6.80114C6.63839 3.375 6.48231 3.43426 6.36723 3.53975C6.25215 3.64524 6.1875 3.78832 6.1875 3.9375V14.0625C6.1875 14.2117 6.25215 14.3548 6.36723 14.4602C6.48231 14.5657 6.63839 14.625 6.80114 14.625ZM7.41477 4.5H9.86932C10.3576 4.5 10.8258 4.67779 11.171 4.99426C11.5163 5.31072 11.7102 5.73995 11.7102 6.1875V6.75C11.7102 7.19755 11.5163 7.62678 11.171 7.94324C10.8258 8.25971 10.3576 8.4375 9.86932 8.4375H7.41477V4.5Z" fill="#283946"/>
</g>
</svg>
