<svg width="18" height="18" viewBox="0 0 18 18" fill="none" xmlns="http://www.w3.org/2000/svg">
<path fill-rule="evenodd" clip-rule="evenodd" d="M4.6149 0.900391C3.28769 0.900391 2.78454 0.997555 2.26602 1.27486C1.83619 1.50473 1.50425 1.83668 1.27437 2.26651C0.997066 2.78503 0.899902 3.28818 0.899902 4.61538L0.899902 13.3854C0.899902 14.7126 0.997066 15.2158 1.27437 15.7343C1.50425 16.1641 1.83619 16.496 2.26602 16.7259C2.78454 17.0032 3.28769 17.1004 4.6149 17.1004H13.3849C14.7121 17.1004 15.2153 17.0032 15.7338 16.7259C16.1636 16.496 16.4956 16.1641 16.7254 15.7343C17.0027 15.2158 17.0999 14.7126 17.0999 13.3854V4.61538C17.0999 3.28818 17.0027 2.78503 16.7254 2.26651C16.4956 1.83668 16.1636 1.50473 15.7338 1.27486C15.2153 0.997555 14.7121 0.900391 13.3849 0.900391L4.6149 0.900391Z" fill="white"/>
<path fill-rule="evenodd" clip-rule="evenodd" d="M13.385 0H4.61499C3.01026 0 2.42834 0.167086 1.84168 0.480839C1.25501 0.794592 0.794592 1.25501 0.480839 1.84168C0.167086 2.42834 0 3.01026 0 4.61499V13.385C0 14.9897 0.167086 15.5717 0.480839 16.1583C0.794592 16.745 1.25501 17.2054 1.84168 17.5192C2.42834 17.8329 3.01026 18 4.61499 18H13.385C14.9897 18 15.5717 17.8329 16.1583 17.5192C16.745 17.2054 17.2054 16.745 17.5192 16.1583C17.8329 15.5717 18 14.9897 18 13.385V4.61499C18 3.01026 17.8329 2.42834 17.5192 1.84168C17.2054 1.25501 16.745 0.794592 16.1583 0.480839C15.5717 0.167086 14.9897 0 13.385 0ZM2.26612 1.27447C2.78464 0.997164 3.28779 0.9 4.61499 0.9H13.385C14.7122 0.9 15.2154 0.997164 15.7339 1.27447C16.1637 1.50434 16.4957 1.83629 16.7255 2.26612C17.0028 2.78464 17.1 3.28779 17.1 4.61499V13.385C17.1 14.7122 17.0028 15.2154 16.7255 15.7339C16.4957 16.1637 16.1637 16.4957 15.7339 16.7255C15.2154 17.0028 14.7122 17.1 13.385 17.1H4.61499C3.28779 17.1 2.78464 17.0028 2.26612 16.7255C1.83629 16.4957 1.50434 16.1637 1.27447 15.7339C0.997164 15.2154 0.9 14.7122 0.9 13.385V4.61499C0.9 3.28779 0.997164 2.78464 1.27447 2.26612C1.50434 1.83629 1.83629 1.50434 2.26612 1.27447Z" fill="#A4B1BB"/>
<path fill-rule="evenodd" clip-rule="evenodd" d="M13.881 3.375H4.11895C4.01861 3.375 3.9375 3.45629 3.9375 3.55645V5.37097C3.9375 5.47113 4.01861 5.55242 4.11895 5.55242H4.3004V14.4435C4.3004 14.5438 4.38164 14.625 4.48185 14.625C4.58207 14.625 4.66331 14.5438 4.66331 14.4435V5.55242H13.373V9.18145H10.6512C10.5509 9.18145 10.4698 9.26274 10.4698 9.3629V11.7218H9.38105V9.54435H9.5625C9.66284 9.54435 9.74395 9.46306 9.74395 9.3629V6.82258C9.74395 6.72242 9.66284 6.64113 9.5625 6.64113H6.65927C6.55893 6.64113 6.47782 6.72242 6.47782 6.82258V9.18145H6.29637C6.19603 9.18145 6.11492 9.26274 6.11492 9.3629V11.9032V14.4435C6.11492 14.5437 6.19603 14.625 6.29637 14.625H9.1996H12.1028C12.2032 14.625 12.2843 14.5437 12.2843 14.4435V12.0847H13.373V14.4359C13.373 14.5362 13.4542 14.6174 13.5544 14.6174C13.6546 14.6174 13.7359 14.5361 13.7359 14.4359V14.3569V11.9032V9.3629V5.55242H13.881C13.9814 5.55242 14.0625 5.47113 14.0625 5.37097V3.55645C14.0625 3.45629 13.9814 3.375 13.881 3.375ZM7.56653 7.00403H6.84073V9.18145H9.1996H9.38105V7.00403H8.65524H7.56653ZM6.65927 9.54435H6.47782V11.7218H9.01815V9.54435H8.29234H7.20363H6.65927ZM7.20363 12.0847H6.47782V14.2621H9.01815V12.0847H8.29234H7.20363ZM9.38105 14.2621H11.9214V12.0847H11.1956H10.1069H9.38105V14.2621ZM10.8327 11.7218H12.1028H13.373V9.54435H12.6472H11.5585H10.8327V11.7218ZM13.5181 5.18952H13.6996V3.7379H4.3004V5.18952H4.48185H5.57056H13.5544H13.5181Z" fill="#A4B1BB"/>
<path d="M13.7359 14.3569V11.9032V9.3629V5.55242M13.7359 14.3569V5.55242M13.7359 14.3569V14.4359C13.7359 14.5362 13.6546 14.6174 13.5544 14.6174V14.6174C13.4542 14.6174 13.373 14.5362 13.373 14.4359V12.0847H12.2843V14.4435C12.2843 14.5437 12.2032 14.625 12.1028 14.625H9.1996H6.29637C6.19603 14.625 6.11492 14.5437 6.11492 14.4435V11.9032V9.3629C6.11492 9.26274 6.19603 9.18145 6.29637 9.18145H6.47782V6.82258C6.47782 6.72242 6.55893 6.64113 6.65927 6.64113H9.5625C9.66284 6.64113 9.74395 6.72242 9.74395 6.82258V9.3629C9.74395 9.46306 9.66284 9.54435 9.5625 9.54435H9.38105V11.7218H10.4698V9.3629C10.4698 9.26274 10.5509 9.18145 10.6512 9.18145H13.373V5.55242H4.66331V14.4435C4.66331 14.5438 4.58207 14.625 4.48185 14.625V14.625C4.38164 14.625 4.3004 14.5438 4.3004 14.4435V5.55242H4.11895C4.01861 5.55242 3.9375 5.47113 3.9375 5.37097V3.55645C3.9375 3.45629 4.01861 3.375 4.11895 3.375H13.881C13.9814 3.375 14.0625 3.45629 14.0625 3.55645V5.37097C14.0625 5.47113 13.9814 5.55242 13.881 5.55242H13.7359M6.84073 7.00403H7.56653H8.65524H9.38105V9.18145H9.1996H6.84073V7.00403ZM6.47782 9.54435H6.65927H7.20363H8.29234H9.01815V11.7218H6.47782V9.54435ZM6.47782 12.0847H7.20363H8.29234H9.01815V14.2621H6.47782V12.0847ZM11.9214 14.2621H9.38105V12.0847H10.1069H11.1956H11.9214V14.2621ZM12.1028 11.7218H10.8327V9.54435H11.5585H12.6472H13.373V11.7218H12.1028ZM13.6996 5.18952H13.5181H13.5544H5.57056H4.48185H4.3004V3.7379H13.6996V5.18952Z" stroke="#A4B1BB" stroke-width="0.25"/>
</svg>
